<mxfile host="app.diagrams.net" agent="Mozilla/5.0 (Windows NT 10.0; Win64; x64) AppleWebKit/537.36 (KHTML, like Gecko) Chrome/137.0.0.0 Safari/537.36 OPR/121.0.0.0" version="28.2.3">
  <diagram name="PÃ¡gina-1" id="Ik4PXLgxCPWhlF4LfS1u">
    <mxGraphModel dx="1384" dy="755" grid="1" gridSize="10" guides="1" tooltips="1" connect="1" arrows="1" fold="1" page="1" pageScale="1" pageWidth="1169" pageHeight="827" math="0" shadow="0">
      <root>
        <mxCell id="0" />
        <mxCell id="1" parent="0" />
        <mxCell id="8zLYAajEcHcjE_jPcUac-17" value="" style="rounded=0;whiteSpace=wrap;html=1;" vertex="1" parent="1">
          <mxGeometry x="100" y="438" width="280" height="220" as="geometry" />
        </mxCell>
        <mxCell id="8zLYAajEcHcjE_jPcUac-12" value="" style="rounded=0;whiteSpace=wrap;html=1;" vertex="1" parent="1">
          <mxGeometry x="100" y="118" width="280" height="220" as="geometry" />
        </mxCell>
        <mxCell id="8zLYAajEcHcjE_jPcUac-9" value="VPC" style="outlineConnect=0;dashed=0;verticalLabelPosition=bottom;verticalAlign=top;align=center;html=1;shape=mxgraph.aws3.vpc;fillColor=#F58534;gradientColor=none;" vertex="1" parent="1">
          <mxGeometry x="110" y="128" width="50" height="60" as="geometry" />
        </mxCell>
        <mxCell id="8zLYAajEcHcjE_jPcUac-10" value="" style="rounded=1;arcSize=10;dashed=1;strokeColor=#ff0000;fillColor=none;gradientColor=none;dashPattern=8 4;strokeWidth=2;" vertex="1" parent="1">
          <mxGeometry x="170" y="168" width="200" height="138.94" as="geometry" />
        </mxCell>
        <mxCell id="8zLYAajEcHcjE_jPcUac-11" value="Servidor Linux&lt;div&gt;&lt;/div&gt;" style="points=[];aspect=fixed;html=1;align=center;shadow=0;dashed=0;fillColor=#FF6A00;strokeColor=none;shape=mxgraph.alibaba_cloud.aliyun_linux;spacingBottom=-90;" vertex="1" parent="1">
          <mxGeometry x="233.93" y="201.39999999999998" width="72.13" height="72.13" as="geometry" />
        </mxCell>
        <mxCell id="8zLYAajEcHcjE_jPcUac-14" value="VPC" style="outlineConnect=0;dashed=0;verticalLabelPosition=bottom;verticalAlign=top;align=center;html=1;shape=mxgraph.aws3.vpc;fillColor=#F58534;gradientColor=none;" vertex="1" parent="1">
          <mxGeometry x="110" y="448" width="50" height="60" as="geometry" />
        </mxCell>
        <mxCell id="8zLYAajEcHcjE_jPcUac-15" value="" style="rounded=1;arcSize=10;dashed=1;strokeColor=#ff0000;fillColor=none;gradientColor=none;dashPattern=8 4;strokeWidth=2;" vertex="1" parent="1">
          <mxGeometry x="170" y="488" width="200" height="138.94" as="geometry" />
        </mxCell>
        <mxCell id="8zLYAajEcHcjE_jPcUac-16" value="Servidor Windows&lt;div&gt;&lt;/div&gt;" style="points=[];aspect=fixed;html=1;align=center;shadow=0;dashed=0;fillColor=#FF6A00;strokeColor=none;shape=mxgraph.alibaba_cloud.aliyun_linux;spacingBottom=-90;" vertex="1" parent="1">
          <mxGeometry x="233.93" y="521.4" width="72.13" height="72.13" as="geometry" />
        </mxCell>
        <mxCell id="8zLYAajEcHcjE_jPcUac-24" value="SSH" style="edgeStyle=orthogonalEdgeStyle;rounded=0;orthogonalLoop=1;jettySize=auto;html=1;entryX=1;entryY=0.5;entryDx=0;entryDy=0;" edge="1" parent="1" source="8zLYAajEcHcjE_jPcUac-22" target="8zLYAajEcHcjE_jPcUac-18">
          <mxGeometry relative="1" as="geometry" />
        </mxCell>
        <mxCell id="8zLYAajEcHcjE_jPcUac-22" value="" style="html=1;verticalLabelPosition=bottom;align=center;labelBackgroundColor=#ffffff;verticalAlign=top;strokeWidth=2;strokeColor=#0080F0;shadow=0;dashed=0;shape=mxgraph.ios7.icons.user;" vertex="1" parent="1">
          <mxGeometry x="920" y="167.48000000000002" width="150" height="139.46" as="geometry" />
        </mxCell>
        <mxCell id="8zLYAajEcHcjE_jPcUac-26" value="RDP" style="edgeStyle=orthogonalEdgeStyle;rounded=0;orthogonalLoop=1;jettySize=auto;html=1;" edge="1" parent="1" source="8zLYAajEcHcjE_jPcUac-23" target="8zLYAajEcHcjE_jPcUac-20">
          <mxGeometry x="0.0006" relative="1" as="geometry">
            <mxPoint as="offset" />
          </mxGeometry>
        </mxCell>
        <mxCell id="8zLYAajEcHcjE_jPcUac-23" value="" style="html=1;verticalLabelPosition=bottom;align=center;labelBackgroundColor=#ffffff;verticalAlign=top;strokeWidth=2;strokeColor=#0080F0;shadow=0;dashed=0;shape=mxgraph.ios7.icons.user;" vertex="1" parent="1">
          <mxGeometry x="920" y="488" width="150" height="139.46" as="geometry" />
        </mxCell>
        <mxCell id="8zLYAajEcHcjE_jPcUac-20" value="port3389" style="fontStyle=0;labelPosition=right;verticalLabelPosition=middle;align=left;verticalAlign=middle;spacingLeft=2;labelBackgroundColor=default;" vertex="1" parent="1">
          <mxGeometry x="360" y="547.47" width="30" height="20" as="geometry" />
        </mxCell>
        <mxCell id="8zLYAajEcHcjE_jPcUac-18" value="port22" style="fontStyle=0;labelPosition=right;verticalLabelPosition=middle;align=left;verticalAlign=middle;spacingLeft=2;labelBackgroundColor=default;" vertex="1" parent="1">
          <mxGeometry x="360" y="227.46" width="30" height="20" as="geometry" />
        </mxCell>
        <mxCell id="8zLYAajEcHcjE_jPcUac-34" style="edgeStyle=orthogonalEdgeStyle;rounded=0;orthogonalLoop=1;jettySize=auto;html=1;curved=1;" edge="1" parent="1" source="8zLYAajEcHcjE_jPcUac-31" target="8zLYAajEcHcjE_jPcUac-32">
          <mxGeometry relative="1" as="geometry">
            <Array as="points">
              <mxPoint x="890" y="398" />
              <mxPoint x="135" y="398" />
            </Array>
          </mxGeometry>
        </mxCell>
        <mxCell id="8zLYAajEcHcjE_jPcUac-31" value="Private Key" style="sketch=0;outlineConnect=0;fontColor=#232F3E;gradientColor=none;strokeColor=#232F3E;fillColor=#ffffff;dashed=0;verticalLabelPosition=bottom;verticalAlign=top;align=center;html=1;fontSize=12;fontStyle=0;aspect=fixed;shape=mxgraph.aws4.resourceIcon;resIcon=mxgraph.aws4.data_encryption_key;" vertex="1" parent="1">
          <mxGeometry x="860" y="288" width="60" height="60" as="geometry" />
        </mxCell>
        <mxCell id="8zLYAajEcHcjE_jPcUac-32" value="Public Key" style="sketch=0;outlineConnect=0;fontColor=#232F3E;gradientColor=none;strokeColor=#232F3E;fillColor=#ffffff;dashed=0;verticalLabelPosition=bottom;verticalAlign=top;align=center;html=1;fontSize=12;fontStyle=0;aspect=fixed;shape=mxgraph.aws4.resourceIcon;resIcon=mxgraph.aws4.data_encryption_key;" vertex="1" parent="1">
          <mxGeometry x="105" y="247.46" width="60" height="60" as="geometry" />
        </mxCell>
        <mxCell id="8zLYAajEcHcjE_jPcUac-35" value="Private Key" style="sketch=0;outlineConnect=0;fontColor=#232F3E;gradientColor=none;strokeColor=#232F3E;fillColor=#ffffff;dashed=0;verticalLabelPosition=bottom;verticalAlign=top;align=center;html=1;fontSize=12;fontStyle=0;aspect=fixed;shape=mxgraph.aws4.resourceIcon;resIcon=mxgraph.aws4.data_encryption_key;" vertex="1" parent="1">
          <mxGeometry x="860" y="608" width="60" height="60" as="geometry" />
        </mxCell>
        <mxCell id="8zLYAajEcHcjE_jPcUac-36" style="edgeStyle=orthogonalEdgeStyle;rounded=0;orthogonalLoop=1;jettySize=auto;html=1;curved=1;" edge="1" parent="1">
          <mxGeometry relative="1" as="geometry">
            <mxPoint x="885" y="659" as="sourcePoint" />
            <mxPoint x="130" y="618" as="targetPoint" />
            <Array as="points">
              <mxPoint x="885" y="709" />
              <mxPoint x="130" y="709" />
            </Array>
          </mxGeometry>
        </mxCell>
        <mxCell id="8zLYAajEcHcjE_jPcUac-37" value="Public Key" style="sketch=0;outlineConnect=0;fontColor=#232F3E;gradientColor=none;strokeColor=#232F3E;fillColor=#ffffff;dashed=0;verticalLabelPosition=bottom;verticalAlign=top;align=center;html=1;fontSize=12;fontStyle=0;aspect=fixed;shape=mxgraph.aws4.resourceIcon;resIcon=mxgraph.aws4.data_encryption_key;" vertex="1" parent="1">
          <mxGeometry x="100" y="558" width="60" height="60" as="geometry" />
        </mxCell>
      </root>
    </mxGraphModel>
  </diagram>
</mxfile>
